<?xml version="1.0" encoding="utf-8"?>
<!-- Generator: Adobe Illustrator 23.1.1, SVG Export Plug-In . SVG Version: 6.00 Build 0)  -->
<svg version="1.1" xmlns="http://www.w3.org/2000/svg" xmlns:xlink="http://www.w3.org/1999/xlink" x="0px" y="0px"
	 viewBox="0 0 1920 1080" style="enable-background:new 0 0 1920 1080;" xml:space="preserve">
<style type="text/css">
	.st0{fill:url(#SVGID_1_);}
	.st1{fill:none;stroke:#F18F20;stroke-width:8;stroke-miterlimit:10;}
	.st2{fill:url(#SVGID_2_);}
	.st3{fill:url(#SVGID_3_);}
	.st4{fill:url(#SVGID_4_);}
	.st5{fill:#FFFFFF;}
	.st6{font-family:'AlteHaasGrotesk_Bold';}
	.st7{font-size:92.8021px;}
	.st8{fill:#FEF7B5;}
	.st9{font-size:73px;}
</style>
<g id="Layer_3">
</g>
<g id="Layer_7">
</g>
<g id="Layer_6">
</g>
<g id="Layer_2">
	<linearGradient id="SVGID_1_" gradientUnits="userSpaceOnUse" x1="1515.7871" y1="384.4873" x2="1515.7871" y2="524.3267">
		<stop  offset="0" style="stop-color:#6BA1D6"/>
		<stop  offset="1" style="stop-color:#3D5BA9"/>
	</linearGradient>
	<path class="st0" d="M1618.25,524.33h-204.92c-14.4,0-26.07-11.67-26.07-26.07v-87.7c0-14.4,11.67-26.07,26.07-26.07h204.92
		c14.4,0,26.07,11.67,26.07,26.07v87.7C1644.32,512.65,1632.64,524.33,1618.25,524.33z"/>
	<path class="st1" d="M1668.52,391.63v125.55c0,18.41-14.91,33.32-33.31,33.32h-116.3c-13.76,0-26,8.56-30.94,21.41
		c-66.71,173.71-277.63,300.61-527.5,300.61s-460.78-126.9-527.5-300.61c-4.93-12.85-17.17-21.41-30.94-21.41h-116.3
		c-18.4,0-33.32-14.91-33.32-33.32V391.63c0-18.4,14.92-33.32,33.32-33.32h116.3c13.76,0,26-8.56,30.94-21.41
		c66.71-173.71,277.63-300.61,527.5-300.61s460.78,126.9,527.5,300.61c4.93,12.85,17.17,21.41,30.94,21.41h116.29
		C1653.6,358.31,1668.52,373.23,1668.52,391.63z"/>
	<linearGradient id="SVGID_2_" gradientUnits="userSpaceOnUse" x1="405.1599" y1="384.4873" x2="405.1599" y2="524.3267">
		<stop  offset="0" style="stop-color:#6BA1D6"/>
		<stop  offset="1" style="stop-color:#3D5BA9"/>
	</linearGradient>
	<path class="st2" d="M507.62,524.33H302.7c-14.4,0-26.07-11.67-26.07-26.07v-87.7c0-14.4,11.67-26.07,26.07-26.07h204.92
		c14.4,0,26.07,11.67,26.07,26.07v87.7C533.69,512.65,522.02,524.33,507.62,524.33z"/>
	<linearGradient id="SVGID_3_" gradientUnits="userSpaceOnUse" x1="960.4735" y1="69.7584" x2="960.4735" y2="219.3725">
		<stop  offset="0" style="stop-color:#6BA1D6"/>
		<stop  offset="1" style="stop-color:#3D5BA9"/>
	</linearGradient>
	<path class="st3" d="M1062.04,219.37H858.91c-14.89,0-26.97-12.07-26.97-26.97V96.72c0-14.89,12.07-26.97,26.97-26.97h203.13
		c14.89,0,26.97,12.07,26.97,26.97v95.68C1089,207.3,1076.93,219.37,1062.04,219.37z"/>
	<path class="st1" d="M1209.92,637.76H708.27c-26.92,0-48.75-21.83-48.75-48.75V294.46c0-26.92,21.83-48.75,48.75-48.75h501.65
		c26.92,0,48.75,21.83,48.75,48.75v294.55C1258.68,615.93,1236.85,637.76,1209.92,637.76z"/>
	<linearGradient id="SVGID_4_" gradientUnits="userSpaceOnUse" x1="959.0987" y1="266.9024" x2="959.0987" y2="616.5645">
		<stop  offset="0" style="stop-color:#6BA1D6"/>
		<stop  offset="1" style="stop-color:#3D5BA9"/>
	</linearGradient>
	<path class="st4" d="M1202.69,616.56H715.51c-19.3,0-34.94-15.64-34.94-34.94V301.85c0-19.3,15.64-34.94,34.94-34.94h487.18
		c19.3,0,34.94,15.64,34.94,34.94v279.78C1237.63,600.92,1221.99,616.56,1202.69,616.56z"/>
	<rect x="699.64" y="285.97" width="195.27" height="35.6"/>
	<rect x="913.97" y="285.97" width="35.6" height="35.6"/>
	<rect x="699.64" y="395.3" width="195.27" height="35.6"/>
	<rect x="913.97" y="395.3" width="35.6" height="35.6"/>
	<rect x="699.64" y="450.79" width="195.27" height="35.6"/>
	<rect x="913.97" y="450.79" width="35.6" height="35.6"/>
	<rect x="699.64" y="505.46" width="195.27" height="35.6"/>
	<rect x="913.97" y="505.46" width="35.6" height="35.6"/>
	<rect x="699.64" y="340.64" width="195.27" height="35.6"/>
	<rect x="913.97" y="340.64" width="35.6" height="35.6"/>
	<rect x="968.63" y="285.97" width="195.27" height="35.6"/>
	<rect x="1182.97" y="285.97" width="35.6" height="35.6"/>
	<rect x="968.63" y="395.3" width="195.27" height="35.6"/>
	<rect x="1182.97" y="395.3" width="35.6" height="35.6"/>
	<rect x="968.63" y="450.79" width="195.27" height="35.6"/>
	<rect x="1182.97" y="450.79" width="35.6" height="35.6"/>
	<rect x="968.63" y="505.46" width="195.27" height="35.6"/>
	<rect x="1182.97" y="505.46" width="35.6" height="35.6"/>
	<rect x="968.63" y="561.01" width="195.27" height="35.6"/>
	<rect x="1182.97" y="561.01" width="35.6" height="35.6"/>
	<rect x="968.63" y="340.64" width="195.27" height="35.6"/>
	<rect x="1182.97" y="340.64" width="35.6" height="35.6"/>
	<text transform="matrix(1 0 0 1 379.3604 483.917)" class="st5 st6 st7">0</text>
	<text transform="matrix(1 0 0 1 934.6748 174.0757)" class="st5 st6 st7">0</text>
	<text transform="matrix(1 0 0 1 1489.9883 483.917)" class="st5 st6 st7">0</text>
	<circle class="st8" cx="528.24" cy="289.14" r="6.36"/>
	<circle class="st8" cx="553.67" cy="289.14" r="6.36"/>
	<circle class="st8" cx="579.1" cy="289.14" r="6.36"/>
	<circle class="st8" cx="604.52" cy="289.14" r="6.36"/>
	<circle class="st8" cx="629.95" cy="289.14" r="6.36"/>
	<circle class="st8" cx="502.82" cy="289.14" r="6.36"/>
	<circle class="st8" cx="1291" cy="289.14" r="6.36"/>
	<circle class="st8" cx="1316.43" cy="289.14" r="6.36"/>
	<circle class="st8" cx="1341.85" cy="289.14" r="6.36"/>
	<circle class="st8" cx="1418.13" cy="289.14" r="6.36"/>
	<circle class="st8" cx="1392.7" cy="289.14" r="6.36"/>
	<circle class="st8" cx="1367.28" cy="289.14" r="6.36"/>
	<circle class="st8" cx="528.24" cy="263.72" r="6.36"/>
	<circle class="st8" cx="553.67" cy="263.72" r="6.36"/>
	<circle class="st8" cx="579.1" cy="263.72" r="6.36"/>
	<circle class="st8" cx="604.52" cy="263.72" r="6.36"/>
	<circle class="st8" cx="629.95" cy="263.72" r="6.36"/>
	<circle class="st8" cx="1291" cy="263.72" r="6.36"/>
	<circle class="st8" cx="1316.43" cy="263.72" r="6.36"/>
	<circle class="st8" cx="1341.85" cy="263.72" r="6.36"/>
	<circle class="st8" cx="1392.7" cy="263.72" r="6.36"/>
	<circle class="st8" cx="1367.28" cy="263.72" r="6.36"/>
	<circle class="st8" cx="553.67" cy="238.29" r="6.36"/>
	<circle class="st8" cx="579.1" cy="238.29" r="6.36"/>
	<circle class="st8" cx="604.52" cy="238.29" r="6.36"/>
	<circle class="st8" cx="629.95" cy="238.29" r="6.36"/>
	<circle class="st8" cx="655.37" cy="238.29" r="6.36"/>
	<circle class="st8" cx="1265.58" cy="238.29" r="6.36"/>
	<circle class="st8" cx="1291" cy="238.29" r="6.36"/>
	<circle class="st8" cx="1316.43" cy="238.29" r="6.36"/>
	<circle class="st8" cx="1341.85" cy="238.29" r="6.36"/>
	<circle class="st8" cx="1367.28" cy="238.29" r="6.36"/>
	<circle class="st8" cx="579.1" cy="212.87" r="6.36"/>
	<circle class="st8" cx="604.52" cy="212.87" r="6.36"/>
	<circle class="st8" cx="629.95" cy="212.87" r="6.36"/>
	<circle class="st8" cx="655.37" cy="212.87" r="6.36"/>
	<circle class="st8" cx="757.07" cy="212.87" r="6.36"/>
	<circle class="st8" cx="782.5" cy="212.87" r="6.36"/>
	<circle class="st8" cx="807.92" cy="212.87" r="6.36"/>
	<circle class="st8" cx="731.65" cy="212.87" r="6.36"/>
	<circle class="st8" cx="706.22" cy="212.87" r="6.36"/>
	<circle class="st8" cx="680.8" cy="212.87" r="6.36"/>
	<circle class="st8" cx="1113.02" cy="212.87" r="6.36"/>
	<circle class="st8" cx="1214.73" cy="212.87" r="6.36"/>
	<circle class="st8" cx="1240.15" cy="212.87" r="6.36"/>
	<circle class="st8" cx="1265.58" cy="212.87" r="6.36"/>
	<circle class="st8" cx="1291" cy="212.87" r="6.36"/>
	<circle class="st8" cx="1316.43" cy="212.87" r="6.36"/>
	<circle class="st8" cx="1341.85" cy="212.87" r="6.36"/>
	<circle class="st8" cx="1189.3" cy="212.87" r="6.36"/>
	<circle class="st8" cx="1163.88" cy="212.87" r="6.36"/>
	<circle class="st8" cx="1138.45" cy="212.87" r="6.36"/>
	<circle class="st8" cx="604.52" cy="187.44" r="6.36"/>
	<circle class="st8" cx="629.95" cy="187.44" r="6.36"/>
	<circle class="st8" cx="655.37" cy="187.44" r="6.36"/>
	<circle class="st8" cx="757.07" cy="187.44" r="6.36"/>
	<circle class="st8" cx="782.5" cy="187.44" r="6.36"/>
	<circle class="st8" cx="807.92" cy="187.44" r="6.36"/>
	<circle class="st8" cx="731.65" cy="187.44" r="6.36"/>
	<circle class="st8" cx="706.22" cy="187.44" r="6.36"/>
	<circle class="st8" cx="680.8" cy="187.44" r="6.36"/>
	<circle class="st8" cx="1113.02" cy="187.44" r="6.36"/>
	<circle class="st8" cx="1214.73" cy="187.44" r="6.36"/>
	<circle class="st8" cx="1240.15" cy="187.44" r="6.36"/>
	<circle class="st8" cx="1265.58" cy="187.44" r="6.36"/>
	<circle class="st8" cx="1291" cy="187.44" r="6.36"/>
	<circle class="st8" cx="1316.43" cy="187.44" r="6.36"/>
	<circle class="st8" cx="1189.3" cy="187.44" r="6.36"/>
	<circle class="st8" cx="1163.88" cy="187.44" r="6.36"/>
	<circle class="st8" cx="1138.45" cy="187.44" r="6.36"/>
	<circle class="st8" cx="629.95" cy="162.02" r="6.36"/>
	<circle class="st8" cx="655.37" cy="162.02" r="6.36"/>
	<circle class="st8" cx="757.07" cy="162.02" r="6.36"/>
	<circle class="st8" cx="782.5" cy="162.02" r="6.36"/>
	<circle class="st8" cx="807.92" cy="162.02" r="6.36"/>
	<circle class="st8" cx="731.65" cy="162.02" r="6.36"/>
	<circle class="st8" cx="706.22" cy="162.02" r="6.36"/>
	<circle class="st8" cx="680.8" cy="162.02" r="6.36"/>
	<circle class="st8" cx="1113.02" cy="162.02" r="6.36"/>
	<circle class="st8" cx="1214.73" cy="162.02" r="6.36"/>
	<circle class="st8" cx="1240.15" cy="162.02" r="6.36"/>
	<circle class="st8" cx="1265.58" cy="162.02" r="6.36"/>
	<circle class="st8" cx="1291" cy="162.02" r="6.36"/>
	<circle class="st8" cx="1189.3" cy="162.02" r="6.36"/>
	<circle class="st8" cx="1163.88" cy="162.02" r="6.36"/>
	<circle class="st8" cx="1138.45" cy="162.02" r="6.36"/>
	<circle class="st8" cx="757.07" cy="136.59" r="6.36"/>
	<circle class="st8" cx="782.5" cy="136.59" r="6.36"/>
	<circle class="st8" cx="807.92" cy="136.59" r="6.36"/>
	<circle class="st8" cx="731.65" cy="136.59" r="6.36"/>
	<circle class="st8" cx="706.22" cy="136.59" r="6.36"/>
	<circle class="st8" cx="680.8" cy="136.59" r="6.36"/>
	<circle class="st8" cx="1113.02" cy="136.59" r="6.36"/>
	<circle class="st8" cx="1214.73" cy="136.59" r="6.36"/>
	<circle class="st8" cx="1240.15" cy="136.59" r="6.36"/>
	<circle class="st8" cx="1189.3" cy="136.59" r="6.36"/>
	<circle class="st8" cx="1163.88" cy="136.59" r="6.36"/>
	<circle class="st8" cx="1138.45" cy="136.59" r="6.36"/>
	<circle class="st8" cx="757.07" cy="111.17" r="6.36"/>
	<circle class="st8" cx="782.5" cy="111.17" r="6.36"/>
	<circle class="st8" cx="807.92" cy="111.17" r="6.36"/>
	<circle class="st8" cx="731.65" cy="111.17" r="6.36"/>
	<circle class="st8" cx="1113.02" cy="111.17" r="6.36"/>
	<circle class="st8" cx="1189.3" cy="111.17" r="6.36"/>
	<circle class="st8" cx="1163.88" cy="111.17" r="6.36"/>
	<circle class="st8" cx="1138.45" cy="111.17" r="6.36"/>
	<circle class="st8" cx="807.92" cy="85.74" r="6.36"/>
	<circle class="st8" cx="1113.02" cy="85.74" r="6.36"/>
	<circle class="st8" cx="528.24" cy="314.57" r="6.36"/>
	<circle class="st8" cx="553.67" cy="314.57" r="6.36"/>
	<circle class="st8" cx="579.1" cy="314.57" r="6.36"/>
	<circle class="st8" cx="604.52" cy="314.57" r="6.36"/>
	<circle class="st8" cx="629.95" cy="314.57" r="6.36"/>
	<circle class="st8" cx="502.82" cy="314.57" r="6.36"/>
	<circle class="st8" cx="1291" cy="314.57" r="6.36"/>
	<circle class="st8" cx="1316.43" cy="314.57" r="6.36"/>
	<circle class="st8" cx="1341.85" cy="314.57" r="6.36"/>
	<circle class="st8" cx="1418.13" cy="314.57" r="6.36"/>
	<circle class="st8" cx="1392.7" cy="314.57" r="6.36"/>
	<circle class="st8" cx="1367.28" cy="314.57" r="6.36"/>
	<circle class="st8" cx="528.24" cy="339.99" r="6.36"/>
	<circle class="st8" cx="553.67" cy="339.99" r="6.36"/>
	<circle class="st8" cx="579.1" cy="339.99" r="6.36"/>
	<circle class="st8" cx="604.52" cy="339.99" r="6.36"/>
	<circle class="st8" cx="629.95" cy="339.99" r="6.36"/>
	<circle class="st8" cx="502.82" cy="339.99" r="6.36"/>
	<circle class="st8" cx="477.39" cy="339.99" r="6.36"/>
	<circle class="st8" cx="1291" cy="339.99" r="6.36"/>
	<circle class="st8" cx="1316.43" cy="339.99" r="6.36"/>
	<circle class="st8" cx="1341.85" cy="339.99" r="6.36"/>
	<circle class="st8" cx="1443.55" cy="339.99" r="6.36"/>
	<circle class="st8" cx="1418.13" cy="339.99" r="6.36"/>
	<circle class="st8" cx="1392.7" cy="339.99" r="6.36"/>
	<circle class="st8" cx="1367.28" cy="339.99" r="6.36"/>
	<circle class="st8" cx="553.67" cy="365.42" r="6.36"/>
	<circle class="st8" cx="579.1" cy="365.42" r="6.36"/>
	<circle class="st8" cx="604.52" cy="365.42" r="6.36"/>
	<circle class="st8" cx="629.95" cy="365.42" r="6.36"/>
	<circle class="st8" cx="1291" cy="365.42" r="6.36"/>
	<circle class="st8" cx="1316.43" cy="365.42" r="6.36"/>
	<circle class="st8" cx="1341.85" cy="365.42" r="6.36"/>
	<circle class="st8" cx="1367.28" cy="365.42" r="6.36"/>
	<circle class="st8" cx="579.1" cy="390.84" r="6.36"/>
	<circle class="st8" cx="604.52" cy="390.84" r="6.36"/>
	<circle class="st8" cx="629.95" cy="390.84" r="6.36"/>
	<circle class="st8" cx="1291" cy="390.84" r="6.36"/>
	<circle class="st8" cx="1316.43" cy="390.84" r="6.36"/>
	<circle class="st8" cx="1341.85" cy="390.84" r="6.36"/>
	<circle class="st8" cx="579.1" cy="416.27" r="6.36"/>
	<circle class="st8" cx="604.52" cy="416.27" r="6.36"/>
	<circle class="st8" cx="629.95" cy="416.27" r="6.36"/>
	<circle class="st8" cx="1291" cy="416.27" r="6.36"/>
	<circle class="st8" cx="1316.43" cy="416.27" r="6.36"/>
	<circle class="st8" cx="1341.85" cy="416.27" r="6.36"/>
	<circle class="st8" cx="579.1" cy="441.69" r="6.36"/>
	<circle class="st8" cx="604.52" cy="441.69" r="6.36"/>
	<circle class="st8" cx="629.95" cy="441.69" r="6.36"/>
	<circle class="st8" cx="1291" cy="441.69" r="6.36"/>
	<circle class="st8" cx="1316.43" cy="441.69" r="6.36"/>
	<circle class="st8" cx="1341.85" cy="441.69" r="6.36"/>
	<circle class="st8" cx="579.1" cy="467.12" r="6.36"/>
	<circle class="st8" cx="604.52" cy="467.12" r="6.36"/>
	<circle class="st8" cx="629.95" cy="467.12" r="6.36"/>
	<circle class="st8" cx="1291" cy="467.12" r="6.36"/>
	<circle class="st8" cx="1316.43" cy="467.12" r="6.36"/>
	<circle class="st8" cx="1341.85" cy="467.12" r="6.36"/>
	<circle class="st8" cx="579.1" cy="492.54" r="6.36"/>
	<circle class="st8" cx="604.52" cy="492.54" r="6.36"/>
	<circle class="st8" cx="629.95" cy="492.54" r="6.36"/>
	<circle class="st8" cx="1291" cy="492.54" r="6.36"/>
	<circle class="st8" cx="1316.43" cy="492.54" r="6.36"/>
	<circle class="st8" cx="1341.85" cy="492.54" r="6.36"/>
	<circle class="st8" cx="579.1" cy="517.97" r="6.36"/>
	<circle class="st8" cx="604.52" cy="517.97" r="6.36"/>
	<circle class="st8" cx="629.95" cy="517.97" r="6.36"/>
	<circle class="st8" cx="1291" cy="517.97" r="6.36"/>
	<circle class="st8" cx="1316.43" cy="517.97" r="6.36"/>
	<circle class="st8" cx="1341.85" cy="517.97" r="6.36"/>
	<circle class="st8" cx="553.67" cy="543.4" r="6.36"/>
	<circle class="st8" cx="579.1" cy="543.4" r="6.36"/>
	<circle class="st8" cx="604.52" cy="543.4" r="6.36"/>
	<circle class="st8" cx="629.95" cy="543.4" r="6.36"/>
	<circle class="st8" cx="1291" cy="543.4" r="6.36"/>
	<circle class="st8" cx="1316.43" cy="543.4" r="6.36"/>
	<circle class="st8" cx="1341.85" cy="543.4" r="6.36"/>
	<circle class="st8" cx="1367.28" cy="543.4" r="6.36"/>
	<circle class="st8" cx="528.24" cy="568.82" r="6.36"/>
	<circle class="st8" cx="553.67" cy="568.82" r="6.36"/>
	<circle class="st8" cx="579.1" cy="568.82" r="6.36"/>
	<circle class="st8" cx="604.52" cy="568.82" r="6.36"/>
	<circle class="st8" cx="629.95" cy="568.82" r="6.36"/>
	<circle class="st8" cx="502.82" cy="568.82" r="6.36"/>
	<circle class="st8" cx="477.39" cy="568.82" r="6.36"/>
	<circle class="st8" cx="1291" cy="568.82" r="6.36"/>
	<circle class="st8" cx="1316.43" cy="568.82" r="6.36"/>
	<circle class="st8" cx="1341.85" cy="568.82" r="6.36"/>
	<circle class="st8" cx="1443.55" cy="568.82" r="6.36"/>
	<circle class="st8" cx="1418.13" cy="568.82" r="6.36"/>
	<circle class="st8" cx="1392.7" cy="568.82" r="6.36"/>
	<circle class="st8" cx="1367.28" cy="568.82" r="6.36"/>
	<circle class="st8" cx="528.24" cy="594.25" r="6.36"/>
	<circle class="st8" cx="553.67" cy="594.25" r="6.36"/>
	<circle class="st8" cx="579.1" cy="594.25" r="6.36"/>
	<circle class="st8" cx="604.52" cy="594.25" r="6.36"/>
	<circle class="st8" cx="629.95" cy="594.25" r="6.36"/>
	<circle class="st8" cx="502.82" cy="594.25" r="6.36"/>
	<circle class="st8" cx="1291" cy="594.25" r="6.36"/>
	<circle class="st8" cx="1316.43" cy="594.25" r="6.36"/>
	<circle class="st8" cx="1341.85" cy="594.25" r="6.36"/>
	<circle class="st8" cx="1418.13" cy="594.25" r="6.36"/>
	<circle class="st8" cx="1392.7" cy="594.25" r="6.36"/>
	<circle class="st8" cx="1367.28" cy="594.25" r="6.36"/>
	<circle class="st8" cx="528.24" cy="619.67" r="6.36"/>
	<circle class="st8" cx="553.67" cy="619.67" r="6.36"/>
	<circle class="st8" cx="579.1" cy="619.67" r="6.36"/>
	<circle class="st8" cx="604.52" cy="619.67" r="6.36"/>
	<circle class="st8" cx="629.95" cy="619.67" r="6.36"/>
	<circle class="st8" cx="502.82" cy="619.67" r="6.36"/>
	<circle class="st8" cx="1291" cy="619.67" r="6.36"/>
	<circle class="st8" cx="1316.43" cy="619.67" r="6.36"/>
	<circle class="st8" cx="1341.85" cy="619.67" r="6.36"/>
	<circle class="st8" cx="1418.13" cy="619.67" r="6.36"/>
	<circle class="st8" cx="1392.7" cy="619.67" r="6.36"/>
	<circle class="st8" cx="1367.28" cy="619.67" r="6.36"/>
	<circle class="st8" cx="528.24" cy="645.1" r="6.36"/>
	<circle class="st8" cx="553.67" cy="645.1" r="6.36"/>
	<circle class="st8" cx="579.1" cy="645.1" r="6.36"/>
	<circle class="st8" cx="604.52" cy="645.1" r="6.36"/>
	<circle class="st8" cx="629.95" cy="645.1" r="6.36"/>
	<circle class="st8" cx="655.37" cy="645.1" r="6.36"/>
	<circle class="st8" cx="1265.58" cy="645.1" r="6.36"/>
	<circle class="st8" cx="1291" cy="645.1" r="6.36"/>
	<circle class="st8" cx="1316.43" cy="645.1" r="6.36"/>
	<circle class="st8" cx="1341.85" cy="645.1" r="6.36"/>
	<circle class="st8" cx="1392.7" cy="645.1" r="6.36"/>
	<circle class="st8" cx="1367.28" cy="645.1" r="6.36"/>
	<circle class="st8" cx="553.67" cy="670.52" r="6.36"/>
	<circle class="st8" cx="579.1" cy="670.52" r="6.36"/>
	<circle class="st8" cx="604.52" cy="670.52" r="6.36"/>
	<circle class="st8" cx="629.95" cy="670.52" r="6.36"/>
	<circle class="st8" cx="655.37" cy="670.52" r="6.36"/>
	<circle class="st8" cx="757.07" cy="670.52" r="6.36"/>
	<circle class="st8" cx="782.5" cy="670.52" r="6.36"/>
	<circle class="st8" cx="807.92" cy="670.52" r="6.36"/>
	<circle class="st8" cx="833.35" cy="670.52" r="6.36"/>
	<circle class="st8" cx="858.77" cy="670.52" r="6.36"/>
	<circle class="st8" cx="884.2" cy="670.52" r="6.36"/>
	<circle class="st8" cx="731.65" cy="670.52" r="6.36"/>
	<circle class="st8" cx="706.22" cy="670.52" r="6.36"/>
	<circle class="st8" cx="680.8" cy="670.52" r="6.36"/>
	<circle class="st8" cx="985.9" cy="670.52" r="6.36"/>
	<circle class="st8" cx="1011.32" cy="670.52" r="6.36"/>
	<circle class="st8" cx="1036.75" cy="670.52" r="6.36"/>
	<circle class="st8" cx="1062.17" cy="670.52" r="6.36"/>
	<circle class="st8" cx="1087.6" cy="670.52" r="6.36"/>
	<circle class="st8" cx="1113.02" cy="670.52" r="6.36"/>
	<circle class="st8" cx="960.47" cy="670.52" r="6.36"/>
	<circle class="st8" cx="935.05" cy="670.52" r="6.36"/>
	<circle class="st8" cx="909.62" cy="670.52" r="6.36"/>
	<circle class="st8" cx="1214.73" cy="670.52" r="6.36"/>
	<circle class="st8" cx="1240.15" cy="670.52" r="6.36"/>
	<circle class="st8" cx="1265.58" cy="670.52" r="6.36"/>
	<circle class="st8" cx="1291" cy="670.52" r="6.36"/>
	<circle class="st8" cx="1316.43" cy="670.52" r="6.36"/>
	<circle class="st8" cx="1341.85" cy="670.52" r="6.36"/>
	<circle class="st8" cx="1189.3" cy="670.52" r="6.36"/>
	<circle class="st8" cx="1163.88" cy="670.52" r="6.36"/>
	<circle class="st8" cx="1138.45" cy="670.52" r="6.36"/>
	<circle class="st8" cx="1367.28" cy="670.52" r="6.36"/>
	<circle class="st8" cx="579.1" cy="695.95" r="6.36"/>
	<circle class="st8" cx="604.52" cy="695.95" r="6.36"/>
	<circle class="st8" cx="629.95" cy="695.95" r="6.36"/>
	<circle class="st8" cx="655.37" cy="695.95" r="6.36"/>
	<circle class="st8" cx="757.07" cy="695.95" r="6.36"/>
	<circle class="st8" cx="782.5" cy="695.95" r="6.36"/>
	<circle class="st8" cx="807.92" cy="695.95" r="6.36"/>
	<circle class="st8" cx="833.35" cy="695.95" r="6.36"/>
	<circle class="st8" cx="858.77" cy="695.95" r="6.36"/>
	<circle class="st8" cx="884.2" cy="695.95" r="6.36"/>
	<circle class="st8" cx="731.65" cy="695.95" r="6.36"/>
	<circle class="st8" cx="706.22" cy="695.95" r="6.36"/>
	<circle class="st8" cx="680.8" cy="695.95" r="6.36"/>
	<circle class="st8" cx="985.9" cy="695.95" r="6.36"/>
	<circle class="st8" cx="1011.32" cy="695.95" r="6.36"/>
	<circle class="st8" cx="1036.75" cy="695.95" r="6.36"/>
	<circle class="st8" cx="1062.17" cy="695.95" r="6.36"/>
	<circle class="st8" cx="1087.6" cy="695.95" r="6.36"/>
	<circle class="st8" cx="1113.02" cy="695.95" r="6.36"/>
	<circle class="st8" cx="960.47" cy="695.95" r="6.36"/>
	<circle class="st8" cx="935.05" cy="695.95" r="6.36"/>
	<circle class="st8" cx="909.62" cy="695.95" r="6.36"/>
	<circle class="st8" cx="1214.73" cy="695.95" r="6.36"/>
	<circle class="st8" cx="1240.15" cy="695.95" r="6.36"/>
	<circle class="st8" cx="1265.58" cy="695.95" r="6.36"/>
	<circle class="st8" cx="1291" cy="695.95" r="6.36"/>
	<circle class="st8" cx="1316.43" cy="695.95" r="6.36"/>
	<circle class="st8" cx="1341.85" cy="695.95" r="6.36"/>
	<circle class="st8" cx="1189.3" cy="695.95" r="6.36"/>
	<circle class="st8" cx="1163.88" cy="695.95" r="6.36"/>
	<circle class="st8" cx="1138.45" cy="695.95" r="6.36"/>
	<circle class="st8" cx="604.52" cy="721.37" r="6.36"/>
	<circle class="st8" cx="629.95" cy="721.37" r="6.36"/>
	<circle class="st8" cx="655.37" cy="721.37" r="6.36"/>
	<circle class="st8" cx="757.07" cy="721.37" r="6.36"/>
	<circle class="st8" cx="782.5" cy="721.37" r="6.36"/>
	<circle class="st8" cx="807.92" cy="721.37" r="6.36"/>
	<circle class="st8" cx="833.35" cy="721.37" r="6.36"/>
	<circle class="st8" cx="858.77" cy="721.37" r="6.36"/>
	<circle class="st8" cx="884.2" cy="721.37" r="6.36"/>
	<circle class="st8" cx="731.65" cy="721.37" r="6.36"/>
	<circle class="st8" cx="706.22" cy="721.37" r="6.36"/>
	<circle class="st8" cx="680.8" cy="721.37" r="6.36"/>
	<circle class="st8" cx="985.9" cy="721.37" r="6.36"/>
	<circle class="st8" cx="1011.32" cy="721.37" r="6.36"/>
	<circle class="st8" cx="1036.75" cy="721.37" r="6.36"/>
	<circle class="st8" cx="1062.17" cy="721.37" r="6.36"/>
	<circle class="st8" cx="1087.6" cy="721.37" r="6.36"/>
	<circle class="st8" cx="1113.02" cy="721.37" r="6.36"/>
	<circle class="st8" cx="960.47" cy="721.37" r="6.36"/>
	<circle class="st8" cx="935.05" cy="721.37" r="6.36"/>
	<circle class="st8" cx="909.62" cy="721.37" r="6.36"/>
	<circle class="st8" cx="1214.73" cy="721.37" r="6.36"/>
	<circle class="st8" cx="1240.15" cy="721.37" r="6.36"/>
	<circle class="st8" cx="1265.58" cy="721.37" r="6.36"/>
	<circle class="st8" cx="1291" cy="721.37" r="6.36"/>
	<circle class="st8" cx="1316.43" cy="721.37" r="6.36"/>
	<circle class="st8" cx="1189.3" cy="721.37" r="6.36"/>
	<circle class="st8" cx="1163.88" cy="721.37" r="6.36"/>
	<circle class="st8" cx="1138.45" cy="721.37" r="6.36"/>
	<circle class="st8" cx="629.95" cy="746.8" r="6.36"/>
	<circle class="st8" cx="655.37" cy="746.8" r="6.36"/>
	<circle class="st8" cx="757.07" cy="746.8" r="6.36"/>
	<circle class="st8" cx="782.5" cy="746.8" r="6.36"/>
	<circle class="st8" cx="807.92" cy="746.8" r="6.36"/>
	<circle class="st8" cx="833.35" cy="746.8" r="6.36"/>
	<circle class="st8" cx="858.77" cy="746.8" r="6.36"/>
	<circle class="st8" cx="884.2" cy="746.8" r="6.36"/>
	<circle class="st8" cx="731.65" cy="746.8" r="6.36"/>
	<circle class="st8" cx="706.22" cy="746.8" r="6.36"/>
	<circle class="st8" cx="680.8" cy="746.8" r="6.36"/>
	<circle class="st8" cx="985.9" cy="746.8" r="6.36"/>
	<circle class="st8" cx="1011.32" cy="746.8" r="6.36"/>
	<circle class="st8" cx="1036.75" cy="746.8" r="6.36"/>
	<circle class="st8" cx="1062.17" cy="746.8" r="6.36"/>
	<circle class="st8" cx="1087.6" cy="746.8" r="6.36"/>
	<circle class="st8" cx="1113.02" cy="746.8" r="6.36"/>
	<circle class="st8" cx="960.47" cy="746.8" r="6.36"/>
	<circle class="st8" cx="935.05" cy="746.8" r="6.36"/>
	<circle class="st8" cx="909.62" cy="746.8" r="6.36"/>
	<circle class="st8" cx="1214.73" cy="746.8" r="6.36"/>
	<circle class="st8" cx="1240.15" cy="746.8" r="6.36"/>
	<circle class="st8" cx="1265.58" cy="746.8" r="6.36"/>
	<circle class="st8" cx="1291" cy="746.8" r="6.36"/>
	<circle class="st8" cx="1189.3" cy="746.8" r="6.36"/>
	<circle class="st8" cx="1163.88" cy="746.8" r="6.36"/>
	<circle class="st8" cx="1138.45" cy="746.8" r="6.36"/>
	<circle class="st8" cx="757.07" cy="772.22" r="6.36"/>
	<circle class="st8" cx="782.5" cy="772.22" r="6.36"/>
	<circle class="st8" cx="807.92" cy="772.22" r="6.36"/>
	<circle class="st8" cx="833.35" cy="772.22" r="6.36"/>
	<circle class="st8" cx="858.77" cy="772.22" r="6.36"/>
	<circle class="st8" cx="884.2" cy="772.22" r="6.36"/>
	<circle class="st8" cx="731.65" cy="772.22" r="6.36"/>
	<circle class="st8" cx="706.22" cy="772.22" r="6.36"/>
	<circle class="st8" cx="680.8" cy="772.22" r="6.36"/>
	<circle class="st8" cx="985.9" cy="772.22" r="6.36"/>
	<circle class="st8" cx="1011.32" cy="772.22" r="6.36"/>
	<circle class="st8" cx="1036.75" cy="772.22" r="6.36"/>
	<circle class="st8" cx="1062.17" cy="772.22" r="6.36"/>
	<circle class="st8" cx="1087.6" cy="772.22" r="6.36"/>
	<circle class="st8" cx="1113.02" cy="772.22" r="6.36"/>
	<circle class="st8" cx="960.47" cy="772.22" r="6.36"/>
	<circle class="st8" cx="935.05" cy="772.22" r="6.36"/>
	<circle class="st8" cx="909.62" cy="772.22" r="6.36"/>
	<circle class="st8" cx="1214.73" cy="772.22" r="6.36"/>
	<circle class="st8" cx="1240.15" cy="772.22" r="6.36"/>
	<circle class="st8" cx="1189.3" cy="772.22" r="6.36"/>
	<circle class="st8" cx="1163.88" cy="772.22" r="6.36"/>
	<circle class="st8" cx="1138.45" cy="772.22" r="6.36"/>
	<circle class="st8" cx="757.07" cy="797.65" r="6.36"/>
	<circle class="st8" cx="782.5" cy="797.65" r="6.36"/>
	<circle class="st8" cx="807.92" cy="797.65" r="6.36"/>
	<circle class="st8" cx="833.35" cy="797.65" r="6.36"/>
	<circle class="st8" cx="858.77" cy="797.65" r="6.36"/>
	<circle class="st8" cx="884.2" cy="797.65" r="6.36"/>
	<circle class="st8" cx="731.65" cy="797.65" r="6.36"/>
	<circle class="st8" cx="985.9" cy="797.65" r="6.36"/>
	<circle class="st8" cx="1011.32" cy="797.65" r="6.36"/>
	<circle class="st8" cx="1036.75" cy="797.65" r="6.36"/>
	<circle class="st8" cx="1062.17" cy="797.65" r="6.36"/>
	<circle class="st8" cx="1087.6" cy="797.65" r="6.36"/>
	<circle class="st8" cx="1113.02" cy="797.65" r="6.36"/>
	<circle class="st8" cx="960.47" cy="797.65" r="6.36"/>
	<circle class="st8" cx="935.05" cy="797.65" r="6.36"/>
	<circle class="st8" cx="909.62" cy="797.65" r="6.36"/>
	<circle class="st8" cx="1189.3" cy="797.65" r="6.36"/>
	<circle class="st8" cx="1163.88" cy="797.65" r="6.36"/>
	<circle class="st8" cx="1138.45" cy="797.65" r="6.36"/>
	<circle class="st8" cx="807.92" cy="823.07" r="6.36"/>
	<circle class="st8" cx="833.35" cy="823.07" r="6.36"/>
	<circle class="st8" cx="858.77" cy="823.07" r="6.36"/>
	<circle class="st8" cx="884.2" cy="823.07" r="6.36"/>
	<circle class="st8" cx="985.9" cy="823.07" r="6.36"/>
	<circle class="st8" cx="1011.32" cy="823.07" r="6.36"/>
	<circle class="st8" cx="1036.75" cy="823.07" r="6.36"/>
	<circle class="st8" cx="1062.17" cy="823.07" r="6.36"/>
	<circle class="st8" cx="1087.6" cy="823.07" r="6.36"/>
	<circle class="st8" cx="1113.02" cy="823.07" r="6.36"/>
	<circle class="st8" cx="960.47" cy="823.07" r="6.36"/>
	<circle class="st8" cx="935.05" cy="823.07" r="6.36"/>
	<circle class="st8" cx="909.62" cy="823.07" r="6.36"/>
	<text transform="matrix(1 0 0 1 125.9186 122.7593)" class="st5 st6 st9">TEAM 1</text>
	<path class="st1" d="M451.49,162.81H69.35c-18.4,0-33.32-14.92-33.32-33.32V69.61c0-18.4,14.92-33.32,33.32-33.32h382.14
		c18.4,0,33.32,14.92,33.32,33.32v59.88C484.81,147.89,469.89,162.81,451.49,162.81z"/>
	<text transform="matrix(1 0 0 1 125.9186 122.7593)" class="st5 st6 st9">TEAM 1</text>
	<text transform="matrix(1 0 0 1 1525.1082 122.7593)" class="st5 st6 st9">TEAM 2</text>
	<path class="st1" d="M1850.68,162.81h-382.14c-18.4,0-33.32-14.92-33.32-33.32V69.61c0-18.4,14.92-33.32,33.32-33.32h382.14
		c18.4,0,33.32,14.92,33.32,33.32v59.88C1884,147.89,1869.08,162.81,1850.68,162.81z"/>
</g>
</svg>
